<mxfile host="Electron" modified="2024-04-23T17:19:04.159Z" agent="Mozilla/5.0 (Windows NT 10.0; Win64; x64) AppleWebKit/537.36 (KHTML, like Gecko) draw.io/24.2.5 Chrome/120.0.6099.109 Electron/28.1.0 Safari/537.36" etag="QvUdAAGPxU3dc4XsH26f" version="24.2.5" type="device">
  <diagram name="Strona-1" id="MwNn0rBq5DeL694kVwpS">
    <mxGraphModel dx="1434" dy="854" grid="1" gridSize="10" guides="1" tooltips="1" connect="1" arrows="1" fold="1" page="1" pageScale="1" pageWidth="827" pageHeight="1169" math="0" shadow="0">
      <root>
        <mxCell id="0" />
        <mxCell id="1" parent="0" />
        <mxCell id="QL4llg5eDo2b7mLzk-H2-1" value="" style="rounded=1;whiteSpace=wrap;html=1;labelBackgroundColor=none;glass=1;shadow=1;" parent="1" vertex="1">
          <mxGeometry x="10" y="190" width="700" height="480" as="geometry" />
        </mxCell>
        <mxCell id="QL4llg5eDo2b7mLzk-H2-18" style="edgeStyle=orthogonalEdgeStyle;rounded=1;orthogonalLoop=1;jettySize=auto;html=1;entryX=0;entryY=0.75;entryDx=0;entryDy=0;exitX=1;exitY=0.25;exitDx=0;exitDy=0;labelBackgroundColor=none;fontColor=default;" parent="1" source="QL4llg5eDo2b7mLzk-H2-3" target="QL4llg5eDo2b7mLzk-H2-5" edge="1">
          <mxGeometry relative="1" as="geometry">
            <Array as="points">
              <mxPoint x="220" y="540" />
              <mxPoint x="220" y="350" />
              <mxPoint x="294" y="350" />
            </Array>
          </mxGeometry>
        </mxCell>
        <mxCell id="QL4llg5eDo2b7mLzk-H2-24" style="edgeStyle=orthogonalEdgeStyle;rounded=1;orthogonalLoop=1;jettySize=auto;html=1;entryX=0;entryY=0.5;entryDx=0;entryDy=0;labelBackgroundColor=none;fontColor=default;" parent="1" source="QL4llg5eDo2b7mLzk-H2-3" target="QL4llg5eDo2b7mLzk-H2-7" edge="1">
          <mxGeometry relative="1" as="geometry" />
        </mxCell>
        <mxCell id="QL4llg5eDo2b7mLzk-H2-25" style="edgeStyle=orthogonalEdgeStyle;rounded=1;orthogonalLoop=1;jettySize=auto;html=1;entryX=0;entryY=0.5;entryDx=0;entryDy=0;labelBackgroundColor=none;fontColor=default;" parent="1" source="QL4llg5eDo2b7mLzk-H2-3" target="QL4llg5eDo2b7mLzk-H2-8" edge="1">
          <mxGeometry relative="1" as="geometry" />
        </mxCell>
        <mxCell id="QL4llg5eDo2b7mLzk-H2-3" value="&lt;b&gt;&lt;font style=&quot;font-size: 15px;&quot; color=&quot;#000000&quot;&gt;Battery&lt;/font&gt;&lt;/b&gt;" style="rounded=1;whiteSpace=wrap;html=1;glass=1;shadow=1;labelBackgroundColor=none;fillColor=#f5f5f5;gradientColor=#b3b3b3;strokeColor=#666666;" parent="1" vertex="1">
          <mxGeometry x="70" y="525" width="120" height="60" as="geometry" />
        </mxCell>
        <mxCell id="QL4llg5eDo2b7mLzk-H2-21" style="edgeStyle=orthogonalEdgeStyle;rounded=1;orthogonalLoop=1;jettySize=auto;html=1;labelBackgroundColor=none;fontColor=default;" parent="1" source="QL4llg5eDo2b7mLzk-H2-5" target="QL4llg5eDo2b7mLzk-H2-6" edge="1">
          <mxGeometry relative="1" as="geometry" />
        </mxCell>
        <mxCell id="QL4llg5eDo2b7mLzk-H2-22" style="edgeStyle=orthogonalEdgeStyle;rounded=1;orthogonalLoop=1;jettySize=auto;html=1;entryX=0;entryY=0.5;entryDx=0;entryDy=0;labelBackgroundColor=none;fontColor=default;" parent="1" source="QL4llg5eDo2b7mLzk-H2-5" target="QL4llg5eDo2b7mLzk-H2-12" edge="1">
          <mxGeometry relative="1" as="geometry" />
        </mxCell>
        <mxCell id="QL4llg5eDo2b7mLzk-H2-23" style="edgeStyle=orthogonalEdgeStyle;rounded=1;orthogonalLoop=1;jettySize=auto;html=1;labelBackgroundColor=none;fontColor=default;" parent="1" source="QL4llg5eDo2b7mLzk-H2-5" target="QL4llg5eDo2b7mLzk-H2-13" edge="1">
          <mxGeometry relative="1" as="geometry" />
        </mxCell>
        <mxCell id="QL4llg5eDo2b7mLzk-H2-5" value="&lt;font color=&quot;#000000&quot;&gt;&lt;span style=&quot;font-size: 15px;&quot;&gt;&lt;b&gt;5V stab&lt;/b&gt;&lt;/span&gt;&lt;/font&gt;" style="rounded=1;whiteSpace=wrap;html=1;glass=1;shadow=1;labelBackgroundColor=none;fillColor=#f5f5f5;gradientColor=#b3b3b3;strokeColor=#666666;" parent="1" vertex="1">
          <mxGeometry x="294" y="300" width="120" height="60" as="geometry" />
        </mxCell>
        <mxCell id="QL4llg5eDo2b7mLzk-H2-26" style="edgeStyle=orthogonalEdgeStyle;rounded=1;orthogonalLoop=1;jettySize=auto;html=1;labelBackgroundColor=none;fontColor=default;" parent="1" source="QL4llg5eDo2b7mLzk-H2-6" target="QL4llg5eDo2b7mLzk-H2-7" edge="1">
          <mxGeometry relative="1" as="geometry" />
        </mxCell>
        <mxCell id="QL4llg5eDo2b7mLzk-H2-6" value="&lt;font color=&quot;#000000&quot;&gt;&lt;span style=&quot;font-size: 15px;&quot;&gt;&lt;b&gt;3.3V stab&lt;/b&gt;&lt;/span&gt;&lt;/font&gt;" style="rounded=1;whiteSpace=wrap;html=1;glass=1;shadow=1;labelBackgroundColor=none;fillColor=#f5f5f5;gradientColor=#b3b3b3;strokeColor=#666666;" parent="1" vertex="1">
          <mxGeometry x="294" y="400" width="120" height="60" as="geometry" />
        </mxCell>
        <mxCell id="QL4llg5eDo2b7mLzk-H2-28" style="edgeStyle=orthogonalEdgeStyle;rounded=1;orthogonalLoop=1;jettySize=auto;html=1;entryX=0.25;entryY=0;entryDx=0;entryDy=0;exitX=0.25;exitY=1;exitDx=0;exitDy=0;labelBackgroundColor=none;fontColor=default;" parent="1" source="QL4llg5eDo2b7mLzk-H2-6" target="QL4llg5eDo2b7mLzk-H2-8" edge="1">
          <mxGeometry relative="1" as="geometry" />
        </mxCell>
        <mxCell id="QL4llg5eDo2b7mLzk-H2-29" style="edgeStyle=orthogonalEdgeStyle;rounded=0;orthogonalLoop=1;jettySize=auto;html=1;" parent="1" source="QL4llg5eDo2b7mLzk-H2-7" target="QL4llg5eDo2b7mLzk-H2-9" edge="1">
          <mxGeometry relative="1" as="geometry" />
        </mxCell>
        <mxCell id="QL4llg5eDo2b7mLzk-H2-7" value="&lt;font color=&quot;#000000&quot;&gt;&lt;span style=&quot;font-size: 15px;&quot;&gt;&lt;b&gt;Left motor driver&lt;/b&gt;&lt;/span&gt;&lt;/font&gt;" style="rounded=1;whiteSpace=wrap;html=1;glass=1;shadow=1;labelBackgroundColor=none;fillColor=#f5f5f5;gradientColor=#b3b3b3;strokeColor=#666666;" parent="1" vertex="1">
          <mxGeometry x="294" y="500" width="120" height="60" as="geometry" />
        </mxCell>
        <mxCell id="QL4llg5eDo2b7mLzk-H2-30" style="edgeStyle=orthogonalEdgeStyle;rounded=0;orthogonalLoop=1;jettySize=auto;html=1;" parent="1" source="QL4llg5eDo2b7mLzk-H2-8" target="QL4llg5eDo2b7mLzk-H2-10" edge="1">
          <mxGeometry relative="1" as="geometry" />
        </mxCell>
        <mxCell id="QL4llg5eDo2b7mLzk-H2-8" value="&lt;font color=&quot;#000000&quot;&gt;&lt;span style=&quot;font-size: 15px;&quot;&gt;&lt;b&gt;Right motor driver&lt;/b&gt;&lt;/span&gt;&lt;/font&gt;" style="rounded=1;whiteSpace=wrap;html=1;glass=1;shadow=1;labelBackgroundColor=none;fillColor=#f5f5f5;gradientColor=#b3b3b3;strokeColor=#666666;" parent="1" vertex="1">
          <mxGeometry x="294" y="590" width="120" height="60" as="geometry" />
        </mxCell>
        <mxCell id="QL4llg5eDo2b7mLzk-H2-9" value="&lt;font color=&quot;#000000&quot;&gt;&lt;span style=&quot;font-size: 15px;&quot;&gt;&lt;b&gt;Left motor&lt;/b&gt;&lt;/span&gt;&lt;/font&gt;" style="rounded=1;whiteSpace=wrap;html=1;glass=1;shadow=1;labelBackgroundColor=none;fillColor=#f5f5f5;gradientColor=#b3b3b3;strokeColor=#666666;" parent="1" vertex="1">
          <mxGeometry x="490" y="500" width="120" height="60" as="geometry" />
        </mxCell>
        <mxCell id="QL4llg5eDo2b7mLzk-H2-10" value="&lt;font color=&quot;#000000&quot;&gt;&lt;span style=&quot;font-size: 15px;&quot;&gt;&lt;b&gt;Right motor&lt;/b&gt;&lt;/span&gt;&lt;/font&gt;" style="rounded=1;whiteSpace=wrap;html=1;glass=1;shadow=1;labelBackgroundColor=none;fillColor=#f5f5f5;gradientColor=#b3b3b3;strokeColor=#666666;" parent="1" vertex="1">
          <mxGeometry x="490" y="590" width="120" height="60" as="geometry" />
        </mxCell>
        <mxCell id="QL4llg5eDo2b7mLzk-H2-12" value="&lt;font color=&quot;#000000&quot;&gt;&lt;span style=&quot;font-size: 15px;&quot;&gt;&lt;b&gt;Bluetooth&lt;/b&gt;&lt;/span&gt;&lt;/font&gt;" style="rounded=1;whiteSpace=wrap;html=1;glass=1;shadow=1;labelBackgroundColor=none;fillColor=#f5f5f5;gradientColor=#b3b3b3;strokeColor=#666666;" parent="1" vertex="1">
          <mxGeometry x="460" y="250" width="120" height="60" as="geometry" />
        </mxCell>
        <mxCell id="QL4llg5eDo2b7mLzk-H2-13" value="&lt;font color=&quot;#000000&quot;&gt;&lt;span style=&quot;font-size: 15px;&quot;&gt;&lt;b&gt;Sensor&lt;/b&gt;&lt;/span&gt;&lt;/font&gt;" style="rounded=1;whiteSpace=wrap;html=1;glass=1;shadow=1;labelBackgroundColor=none;fillColor=#f5f5f5;gradientColor=#b3b3b3;strokeColor=#666666;" parent="1" vertex="1">
          <mxGeometry x="460" y="350" width="120" height="60" as="geometry" />
        </mxCell>
        <mxCell id="QL4llg5eDo2b7mLzk-H2-19" style="edgeStyle=orthogonalEdgeStyle;rounded=1;orthogonalLoop=1;jettySize=auto;html=1;exitX=1;exitY=0.5;exitDx=0;exitDy=0;labelBackgroundColor=none;fontColor=default;" parent="1" source="QL4llg5eDo2b7mLzk-H2-15" edge="1">
          <mxGeometry relative="1" as="geometry">
            <mxPoint x="294" y="320" as="targetPoint" />
            <Array as="points">
              <mxPoint x="220" y="250" />
              <mxPoint x="220" y="320" />
            </Array>
          </mxGeometry>
        </mxCell>
        <mxCell id="QL4llg5eDo2b7mLzk-H2-15" value="&lt;font color=&quot;#000000&quot;&gt;&lt;span style=&quot;font-size: 15px;&quot;&gt;&lt;b&gt;Programmer&lt;/b&gt;&lt;/span&gt;&lt;/font&gt;" style="rounded=1;whiteSpace=wrap;html=1;glass=1;shadow=1;labelBackgroundColor=none;fillColor=#f5f5f5;gradientColor=#b3b3b3;strokeColor=#666666;" parent="1" vertex="1">
          <mxGeometry x="70" y="220" width="120" height="60" as="geometry" />
        </mxCell>
        <mxCell id="QL4llg5eDo2b7mLzk-H2-20" style="edgeStyle=orthogonalEdgeStyle;rounded=1;orthogonalLoop=1;jettySize=auto;html=1;entryX=0;entryY=0.5;entryDx=0;entryDy=0;labelBackgroundColor=none;fontColor=default;" parent="1" source="QL4llg5eDo2b7mLzk-H2-16" target="QL4llg5eDo2b7mLzk-H2-5" edge="1">
          <mxGeometry relative="1" as="geometry" />
        </mxCell>
        <mxCell id="QL4llg5eDo2b7mLzk-H2-16" value="&lt;font color=&quot;#000000&quot;&gt;&lt;span style=&quot;font-size: 15px;&quot;&gt;&lt;b&gt;UART&lt;/b&gt;&lt;/span&gt;&lt;/font&gt;" style="rounded=1;whiteSpace=wrap;html=1;glass=1;shadow=1;labelBackgroundColor=none;fillColor=#f5f5f5;gradientColor=#b3b3b3;strokeColor=#666666;" parent="1" vertex="1">
          <mxGeometry x="70" y="300" width="120" height="60" as="geometry" />
        </mxCell>
        <mxCell id="QL4llg5eDo2b7mLzk-H2-32" style="edgeStyle=orthogonalEdgeStyle;rounded=0;orthogonalLoop=1;jettySize=auto;html=1;exitX=0.5;exitY=1;exitDx=0;exitDy=0;" parent="1" source="QL4llg5eDo2b7mLzk-H2-1" target="QL4llg5eDo2b7mLzk-H2-1" edge="1">
          <mxGeometry relative="1" as="geometry" />
        </mxCell>
      </root>
    </mxGraphModel>
  </diagram>
</mxfile>
